<?xml version="1.0" encoding="UTF-8" standalone="no"?>
<!-- Created with Inkscape (http://www.inkscape.org/) -->

<svg
   xmlns:dc="http://purl.org/dc/elements/1.1/"
   xmlns:cc="http://creativecommons.org/ns#"
   xmlns:rdf="http://www.w3.org/1999/02/22-rdf-syntax-ns#"
   xmlns:svg="http://www.w3.org/2000/svg"
   xmlns="http://www.w3.org/2000/svg"
   xmlns:sodipodi="http://sodipodi.sourceforge.net/DTD/sodipodi-0.dtd"
   xmlns:inkscape="http://www.inkscape.org/namespaces/inkscape"
   width="124.11104mm"
   height="30.874014mm"
   viewBox="0 0 124.11104 30.874014"
   version="1.1"
   id="svg1531"
   inkscape:version="0.92.5 (2060ec1f9f, 2020-04-08)"
   sodipodi:docname="logo.svg"
   inkscape:export-filename="C:\Users\watanabe_azusa\Desktop\logo.png"
   inkscape:export-xdpi="45.255699"
   inkscape:export-ydpi="45.255699">
  <defs
     id="defs1525" />
  <sodipodi:namedview
     id="base"
     pagecolor="#ffffff"
     bordercolor="#666666"
     borderopacity="1.0"
     inkscape:pageopacity="0.0"
     inkscape:pageshadow="2"
     inkscape:zoom="1.979899"
     inkscape:cx="186.57171"
     inkscape:cy="-5.6338672"
     inkscape:document-units="mm"
     inkscape:current-layer="layer1"
     showgrid="false"
     inkscape:pagecheckerboard="true"
     fit-margin-left="5"
     fit-margin-top="2"
     fit-margin-right="5"
     fit-margin-bottom="2" />
  <metadata
     id="metadata1528">
    <rdf:RDF>
      <cc:Work
         rdf:about="">
        <dc:format>image/svg+xml</dc:format>
        <dc:type
           rdf:resource="http://purl.org/dc/dcmitype/StillImage" />
        <dc:title></dc:title>
      </cc:Work>
    </rdf:RDF>
  </metadata>
  <g
     inkscape:label="レイヤー 1"
     inkscape:groupmode="layer"
     id="layer1"
     transform="translate(-14.991458,-46.967165)">
    <g
       aria-label="分け次郎"
       style="font-style:normal;font-variant:normal;font-weight:500;font-stretch:normal;font-size:21.08171844px;line-height:1.5;font-family:'Noto Sans JP';-inkscape-font-specification:'Noto Sans JP, Medium';font-variant-ligatures:normal;font-variant-caps:normal;font-variant-numeric:normal;font-feature-settings:normal;text-align:center;letter-spacing:0px;word-spacing:0px;writing-mode:lr-tb;text-anchor:middle;fill:#ffffff;fill-opacity:1;stroke:#ffffff;stroke-width:0.3162258"
       id="text1535">
      <path
         d="m 33.720929,61.185138 q 0.576453,0.411752 0.08235,0.741154 -0.988206,3.952823 -1.647009,6.093935 -0.576454,1.564659 -1.482309,2.552864 -0.576453,0.905856 -0.905855,0.247052 -0.905855,-1.647009 -2.552865,-2.470514 -0.1647,-0.247052 0.08235,-0.247052 0.741154,0.247052 1.235257,0.411753 0.658804,0.164701 1.235257,0.164701 0.658804,0 1.399958,-2.964617 0.576453,-1.976412 0.905855,-3.54107 0.08235,-0.658804 -0.329402,-0.741155 -1.647009,0.329402 -3.705771,0.741155 0.494103,0.658803 0.576453,1.482308 -0.164701,0.494103 -0.823504,1.235257 -1.317608,1.81171 -2.799916,3.129318 -1.482309,1.235257 -3.45872,2.223463 -0.247051,0 -0.08235,-0.247052 2.388163,-1.81171 3.788121,-3.788121 1.894061,-2.717566 1.894061,-3.294019 0,-0.576454 -0.329402,-0.494103 -1.235257,0.329402 -2.058762,0.576453 -0.576453,-0.164701 -0.905855,-0.411752 -0.576453,-0.494103 0.329402,-0.494103 3.211668,-0.576453 6.835089,-1.235257 0.988206,-0.329402 1.317608,-0.494103 0.658803,0.329402 1.399958,0.823505 z m -4.364575,-7.658594 q 1.317607,0.823505 2.305813,1.72936 1.72936,1.399958 3.54107,2.552865 1.482309,0.988205 3.623421,2.058761 0.329402,0.247052 -0.164701,0.411753 -0.658804,0.164701 -1.72936,0.247051 -0.658804,0 -1.152907,0 -0.658803,0 -1.152906,-0.08235 -1.152907,-1.482309 -2.388164,-3.046968 -1.482308,-1.976411 -2.635215,-2.964617 -0.905855,-0.658803 -1.564659,-0.741154 -0.164701,0.08235 -0.411752,0.164701 -0.494103,-0.329402 -0.494103,-0.658804 0.08235,-0.164701 0.411752,-0.247051 1.070556,0.08235 1.811711,0.576453 z m -2.799916,2.717566 q 0.329402,0.741154 -0.08235,0.905855 -1.647009,1.647009 -3.294019,2.964617 -1.81171,1.399958 -2.882266,1.81171 -0.247051,0 -0.08235,-0.247051 1.482309,-1.317608 2.635216,-2.635215 1.152906,-1.317608 1.976411,-2.799916 0,-0.658804 -0.08235,-1.152907 -0.08235,-0.329402 0.411753,-0.164701 0.823504,0.247052 1.399958,1.317608 z"
         style="font-style:normal;font-variant:normal;font-weight:normal;font-stretch:normal;font-size:21.08172035px;line-height:2.5;font-family:HGSeikaishotaiPRO;-inkscape-font-specification:'HGSeikaishotaiPRO, Normal';font-variant-ligatures:normal;font-variant-caps:normal;font-variant-numeric:normal;font-feature-settings:normal;text-align:center;writing-mode:lr-tb;text-anchor:middle;fill:#ffffff;stroke:#ffffff;stroke-width:0.3162258"
         id="path1603" />
      <path
         d="m 52.826238,53.855946 q 0.658803,0 0.988205,0.08235 0.576454,0.1647 1.152907,0.658803 0.329402,0.247052 0.08235,0.576454 l 0.08235,3.129317 q 0.411752,-0.08235 0.905855,-0.411752 0.411752,-0.329402 0.741154,-0.164701 1.235257,0.329402 1.317608,1.070556 0,0.329402 -0.494103,0.411753 -0.905855,-0.08235 -2.470514,0.164701 v 2.717565 q 0,2.470514 -0.823505,4.199874 -0.658804,1.72936 -2.470514,3.788122 -0.329402,0.164701 -0.247051,-0.164701 1.399958,-2.470514 1.81171,-4.364575 0.411752,-2.058762 0.411752,-6.011584 -1.81171,0.411752 -3.705771,0.905855 -0.164701,0.08235 -0.411752,0.08235 -0.411753,-0.08235 -0.658804,-0.329402 -0.247051,-0.247051 0.08235,-0.329402 0.411752,0 0.988205,-0.164701 1.81171,-0.494102 3.705771,-1.070556 0,-1.72936 -0.164701,-2.882266 -0.08235,-0.576453 -0.411752,-0.905855 -0.411752,-0.247052 -0.576453,-0.658804 -0.164701,-0.329402 0.164701,-0.329402 z m -7.246842,1.894061 q 0.494103,0.658804 0.576454,1.482308 -0.988206,2.964617 -1.235257,4.282225 -0.247052,1.317607 -0.247052,2.717565 0,1.152907 0.247052,1.811711 0.247051,0.329402 0.494102,-0.08235 0.741155,-1.317607 1.399958,-2.470514 0.247052,-0.247051 0.247052,0.08235 -0.905855,2.635215 -0.988206,4.858677 0,0.658804 -0.576453,0.658804 -0.823505,0 -1.317608,-1.647009 -0.494103,-1.482309 -0.494103,-3.705772 0.08235,-2.305813 0.823505,-6.917439 0,-0.411752 -0.08235,-0.741154 -0.164701,-0.658804 -0.494103,-0.988206 -0.164701,-0.411752 0.247051,-0.329402 0.823505,0.411753 1.399958,0.988206 z"
         style="font-style:normal;font-variant:normal;font-weight:normal;font-stretch:normal;font-size:21.08172035px;line-height:2.5;font-family:HGSeikaishotaiPRO;-inkscape-font-specification:'HGSeikaishotaiPRO, Normal';font-variant-ligatures:normal;font-variant-caps:normal;font-variant-numeric:normal;font-feature-settings:normal;text-align:center;writing-mode:lr-tb;text-anchor:middle;fill:#ffffff;stroke:#ffffff;stroke-width:0.3162258"
         id="path1605" />
      <path
         d="m 73.084453,60.196932 q 0.247052,0.329402 0,0.741154 -0.247051,1.317608 -0.494103,2.305814 2.058762,2.552864 4.858678,4.611626 1.317608,0.988206 3.705771,1.894061 0.494103,0.164701 0,0.411752 -0.988205,0.08235 -2.141112,0.164701 h -0.658804 q -0.741154,0 -1.317607,-0.08235 -1.72936,-1.72936 -4.611626,-6.505688 -1.235258,2.635216 -2.470515,3.705772 -1.564658,1.564659 -4.693976,2.717565 -0.329402,0 -0.247052,-0.247051 3.129318,-1.811711 4.776328,-4.364575 1.647009,-2.552865 1.647009,-4.941028 0,-0.411753 -0.247052,-0.741155 -0.1647,-0.247051 -0.08235,-0.411752 0,-0.247051 0.411752,-0.164701 0.658804,0.164701 0.905856,0.247052 0.411752,0.329401 0.658803,0.658803 z m -1.235257,-6.835089 q 0.576454,0.247052 0.905855,0.658804 0.329402,0.411752 -0.08235,0.823505 -0.905855,1.647009 -1.81171,3.046967 h 0.741154 q 2.223463,-0.576453 4.446925,-1.235257 l 0.576454,-0.329402 q 0.247051,-0.329402 0.494102,-0.08235 0.988206,0.658803 1.72936,1.317607 0.411753,0.329402 0,0.576454 -0.329402,0.08235 -0.658804,0.247051 l -3.294018,2.058762 q -0.329402,0.164701 -0.08235,-0.247052 0.823505,-1.152906 1.564659,-2.470514 0.164701,-0.494103 -0.411752,-0.329402 -2.552865,0.741155 -4.611627,1.399958 -0.494102,0 -0.988205,-0.164701 -0.823505,1.070556 -1.72936,2.058762 -0.411752,0.164701 -0.164701,-0.247051 1.070556,-1.811711 1.976411,-4.199874 0.494103,-1.235257 0.494103,-1.976412 0,-0.411752 -0.247051,-0.658803 -0.164701,-0.164701 -0.329402,-0.329402 -0.08235,-0.247052 0.329402,-0.247052 0.576453,0 1.152906,0.329402 z M 63.6965,67.279073 q -0.247052,0.823504 -0.658804,0.576453 -0.494103,-0.411752 -0.905855,-0.905855 -0.329402,-0.494103 -0.411753,-1.070556 0,-0.494103 0.329402,-0.411753 0.164701,0.08235 0.411753,0.08235 0.411752,0 1.070556,-0.823505 1.235257,-1.482308 2.717565,-3.788122 0.411753,-0.247051 0.247052,0.247052 -0.988206,2.799916 -2.799916,6.093935 z m 2.141112,-10.787912 q 0.658804,0.741154 0.905855,1.81171 0,0.411753 -0.329402,0.494103 -0.494103,0 -1.399958,-0.741154 -1.152906,-1.070556 -1.647009,-2.141112 -0.164701,-0.411753 0.164701,-0.247052 2.058762,0.658804 2.305813,0.823505 z"
         style="font-style:normal;font-variant:normal;font-weight:normal;font-stretch:normal;font-size:21.08172035px;line-height:2.5;font-family:HGSeikaishotaiPRO;-inkscape-font-specification:'HGSeikaishotaiPRO, Normal';font-variant-ligatures:normal;font-variant-caps:normal;font-variant-numeric:normal;font-feature-settings:normal;text-align:center;writing-mode:lr-tb;text-anchor:middle;fill:#ffffff;stroke:#ffffff;stroke-width:0.3162258"
         id="path1607" />
      <path
         d="m 99.436606,55.173554 q 0.329402,0.247051 0.576454,0.494102 0.1647,0.164701 -0.411753,0.494103 -1.317608,1.64701 -2.717566,3.211669 v 0.247051 q 2.223463,1.894061 2.799916,2.882266 0.658803,1.152907 0.658803,2.717566 -0.0824,0.247051 -0.0824,0.576453 -0.0823,0.576454 -0.411752,1.235257 -0.247051,0.494103 -0.658804,0.329402 -1.482308,-1.564659 -2.799916,-2.141112 -0.741154,-0.329402 -0.741154,-0.494103 0.08235,-0.08235 0.411752,0 1.152907,0.08235 1.72936,0.164701 0.411753,0 0.741154,-0.08235 0.164701,-0.08235 0.164701,-0.576454 v -0.164701 q 0,-0.494102 -0.576453,-1.647009 -0.658804,-1.152907 -1.72936,-2.388164 -0.329402,-0.164701 -0.164701,-0.411752 0.741155,-1.81171 1.482309,-3.623421 v -0.247051 q 0,-0.164701 -0.329402,-0.08235 -2.470514,0.905856 -2.882267,0.988206 0.08235,0.08235 0.08235,0.741154 -0.164701,5.105729 -0.164701,8.893851 0,2.223463 -0.247051,3.952823 -0.329402,1.647009 -0.658804,1.647009 -0.329402,0 -0.411753,-0.494103 -0.08235,-0.494103 -0.08235,-1.152906 0,-6.423337 0,-12.929024 0,-0.411753 -0.247051,-0.988206 -0.411753,-0.823505 0.164701,-0.741154 0.329401,0.08235 0.658803,0.247051 0.247052,0.164701 0.658804,0.08235 1.317608,-0.329402 2.141112,-0.658804 0.823505,-0.329402 1.235257,-0.576453 0.494103,-0.494103 0.905855,-0.247052 0.494103,0.329402 0.905856,0.741155 z m -7.905645,2.058761 -0.329402,0.411753 q -0.494103,2.058761 -0.988206,4.035173 -0.08235,0.411752 -0.247051,0.411752 -0.411753,0.08235 -0.576454,-0.164701 -0.08235,-0.164701 -0.329402,-0.08235 -1.399958,0.411752 -2.882266,0.741154 -0.164701,2.058762 -0.164701,3.129318 0,0.494103 0.329402,0.247051 1.070556,-0.576453 3.211668,-2.058762 -0.411752,-0.658803 -0.658804,-1.235257 -0.1647,-0.494102 0.164701,-0.247051 0.411753,0.247051 1.070557,0.411752 0.905855,0.411753 1.235257,1.976412 0,0.905855 -0.411753,0.823504 -0.247051,-0.08235 -1.152906,-1.317607 -1.894061,1.647009 -3.952823,4.199874 -0.08235,0.247051 -0.247051,0.329402 -0.329402,-0.08235 -0.741155,-0.988206 -0.247051,-0.658804 -0.247051,-1.152907 0.08235,-0.576453 0.247051,-1.81171 0.329402,-3.870472 0.329402,-6.011584 0,-0.658804 -0.08235,-0.823505 -0.247052,-0.247051 -0.329402,-0.411752 -0.247051,-0.411753 0.164701,-0.411753 0.164701,0 0.576453,0.164701 0.494103,0 1.811711,-0.329402 0.823504,-0.411752 2.388163,-0.905855 0.164701,-0.329402 0.411753,-0.164701 0.658803,0.411753 1.317607,0.823505 0.08235,0.164701 0.08235,0.411752 z m -5.18808,1.811711 q 0,0.247051 0,0.494103 1.070556,-0.329402 1.564659,-0.741155 0.329402,-0.164701 0.905855,0 0.494103,0.329402 -0.08235,0.658804 -0.576454,0.247051 -1.317608,0.494103 -0.576453,0.164701 -1.070556,0.247051 0,0.905855 -0.08235,1.72936 0.411753,-0.08235 2.882267,-1.070556 0.247051,-1.647009 0.494103,-3.376369 v -0.164701 q 0,-0.164701 -0.164701,-0.247052 h -0.164701 q -1.564659,0.494103 -3.211669,0.905856 0.247052,0.247051 0.247052,1.070556 z m 1.72936,-5.846884 q 0.576453,0.08235 0.905855,0.494103 0.494103,0.576453 0.494103,1.070556 0,0.411753 -0.411753,0.411753 -0.247051,0 -1.235257,-0.494103 -0.988205,-0.576454 -1.564659,-1.399958 -0.247051,-0.576454 0.411753,-0.247052 0.741154,0.164701 1.399958,0.164701 z"
         style="font-style:normal;font-variant:normal;font-weight:normal;font-stretch:normal;font-size:21.08172035px;line-height:2.5;font-family:HGSeikaishotaiPRO;-inkscape-font-specification:'HGSeikaishotaiPRO, Normal';font-variant-ligatures:normal;font-variant-caps:normal;font-variant-numeric:normal;font-feature-settings:normal;text-align:center;writing-mode:lr-tb;text-anchor:middle;fill:#ffffff;stroke:#ffffff;stroke-width:0.3162258"
         id="path1609" />
    </g>
    <flowRoot
       xml:space="preserve"
       id="flowRoot1537"
       style="font-style:normal;font-variant:normal;font-weight:500;font-stretch:normal;font-size:66.66666412px;line-height:1.5;font-family:'Noto Sans JP';-inkscape-font-specification:'Noto Sans JP, Medium';font-variant-ligatures:normal;font-variant-caps:normal;font-variant-numeric:normal;font-feature-settings:normal;text-align:center;letter-spacing:0px;word-spacing:0px;writing-mode:lr-tb;text-anchor:middle;fill:#000000;fill-opacity:1;stroke:none"
       transform="scale(0.26458333)"><flowRegion
         id="flowRegion1539"><rect
           id="rect1541"
           width="30.304577"
           height="136.37059"
           x="208.09143"
           y="69.940735" /></flowRegion><flowPara
         id="flowPara1543"></flowPara></flowRoot>    <g
       id="g1397"
       transform="matrix(0.18298218,0,0,0.18978662,102.47487,26.698908)">
      <path
         transform="matrix(0.26458333,0,0,0.26458333,0,87)"
         id="path10"
         d="m 161.94531,122.20312 -4.40234,195.00196 c -20.25038,34.75398 -31.82813,73.2024 -31.82813,110.78125 0,57.59539 37.18237,122.59582 81.13086,160.33984 43.9485,37.74399 128.94859,53.94531 196.01172,53.94531 67.06315,0 127.77807,-30.48648 171.72656,-68.23046 43.9485,-37.74403 71.13086,-89.88704 71.13086,-147.48243 0,-40.35084 -17.566,-81.52438 -46.13476,-118.00195 l -10.0293,-180.05078 -103.54101,89.59961 c -37.30253,-18.01375 -77.75804,-28.68945 -117.4375,-28.68945 -34.64741,0 -67.59236,8.24715 -97.41407,22.44531 z"
         style="opacity:1;fill:#ffffff;fill-opacity:1;stroke:#666666;stroke-width:15.11811066;stroke-linecap:round;stroke-linejoin:round;stroke-miterlimit:4;stroke-dasharray:none;stroke-dashoffset:0;stroke-opacity:1;paint-order:normal"
         inkscape:connector-curvature="0" />
      <path
         sodipodi:nodetypes="cssscsssc"
         inkscape:connector-curvature="0"
         id="path856-8"
         d="m 93.40731,192.57372 c -1.47805,3.26784 -5.11131,4.48962 -6.67729,4.81057 -3.5311,0.7237 -8.34601,0.6546 -13.3406,-0.31156 -4.10853,-0.79474 -8.37016,-1.97292 -11.41387,-4.544 -2.47371,-2.08959 -3.73557,-4.64516 -2.9724,-6.47582 0.78362,-1.8143 3.39977,-3.10686 6.99604,-3.72998 3.59627,-0.62313 8.17266,-0.57683 12.87676,0.28661 4.70409,0.86343 8.78751,2.18847 11.21442,4.13531 2.82484,2.26605 3.94735,4.12576 3.31694,5.82887 z"
         style="opacity:1;fill:none;fill-opacity:1;stroke:#666666;stroke-width:2.30311608;stroke-linecap:round;stroke-linejoin:round;stroke-miterlimit:4;stroke-dasharray:none;stroke-dashoffset:0;stroke-opacity:1;paint-order:normal" />
      <path
         sodipodi:nodetypes="sssss"
         inkscape:connector-curvature="0"
         id="path873-7"
         d="m 79.448519,190.19487 c 0.06644,4.39185 -0.506761,6.40932 -2.325808,6.3425 -1.951366,-0.0717 -2.526259,-1.37359 -2.325808,-6.7434 0.227051,-6.08239 1.0413,-6.3425 2.325808,-6.3425 1.284508,0 2.246595,1.50696 2.325808,6.7434 z"
         style="opacity:1;fill:#666666;fill-opacity:1;stroke:#666666;stroke-width:3.9394722;stroke-linecap:round;stroke-linejoin:round;stroke-miterlimit:4;stroke-dasharray:none;stroke-dashoffset:0;stroke-opacity:1;paint-order:normal" />
      <path
         sodipodi:nodetypes="cssscsssc"
         inkscape:connector-curvature="0"
         id="path856-8-5"
         d="m 106.61613,193.07303 c 1.59035,0.88393 2.31253,0.93071 5.94016,0.25513 3.42079,-0.63706 5.16656,-1.70684 8.89705,-3.69494 3.69199,-1.96759 8.50994,-4.74414 12.3433,-9.15796 1.07296,-1.23542 1.569,-3.64886 0.85898,-5.09679 -1.0231,-3.18223 -7.51205,-3.05541 -10.77113,-1.74805 -3.00828,1.20676 -6.80829,2.49643 -10.22754,5.01944 -3.41925,2.523 -6.14686,5.23599 -7.28355,7.90166 -1.32305,3.10277 -0.71727,5.81163 0.24273,6.52151 z"
         style="opacity:1;fill:none;fill-opacity:1;stroke:#666666;stroke-width:2.29999995;stroke-linecap:round;stroke-linejoin:round;stroke-miterlimit:4;stroke-dasharray:none;stroke-dashoffset:0;stroke-opacity:1;paint-order:normal" />
      <path
         sodipodi:nodetypes="sscsscs"
         inkscape:connector-curvature="0"
         id="path873-7-6"
         d="m 124.08526,181.13896 c 0.41944,2.05591 0.79135,3.83391 0.40745,5.13391 -0.3367,1.14018 -1.45899,1.9044 -2.97136,4.33855 -3.09428,1.49555 -3.85138,1.89032 -4.38934,-6.41644 -0.40578,-6.26563 0.0427,-6.16327 -0.14736,-8.04155 -0.13747,-1.35888 2.52363,-0.74046 4.87579,-1.27284 0,0 1.32616,1.85358 2.22482,6.25837 z"
         style="opacity:1;fill:#666666;fill-opacity:1;stroke:none;stroke-width:4.52319288;stroke-linecap:round;stroke-linejoin:round;stroke-miterlimit:4;stroke-dasharray:none;stroke-dashoffset:0;stroke-opacity:1;paint-order:normal" />
      <path
         sodipodi:nodetypes="cc"
         inkscape:connector-curvature="0"
         id="path909"
         d="m 90.67299,212.57761 c -0.1278,8.63531 19.67115,7.92979 17.57814,-0.10213"
         style="fill:none;stroke:#666666;stroke-width:2.29999995;stroke-linecap:round;stroke-linejoin:round;stroke-miterlimit:4;stroke-dasharray:none;stroke-opacity:1" />
      <path
         sodipodi:nodetypes="cccccccccc"
         inkscape:connector-curvature="0"
         id="path1046"
         d="m 80.73711,218.92106 c -1.73093,2.89799 -1.57699,8.17423 1.64275,9.84753 2.47878,1.33538 3.33391,2.03304 7.87823,2.3011 3.24073,-0.39689 9.11143,-1.16758 10.96326,-3.12699 l 0.17079,-7.3666 c 0.36591,12.32033 -0.25908,4.08112 -0.17079,7.3666 5.02796,0.51517 11.50712,1.98734 15.50729,2.14291 5.32802,0.14875 8.22498,-0.85197 11.34995,-2.56558 0.45055,-1.46674 2.94382,-0.11939 2.64584,-8.22099 -1.21703,-1.61109 -0.0784,-4.19218 -6.89808,-3.49628"
         style="fill:none;stroke:#666666;stroke-width:2.29999995;stroke-linecap:round;stroke-linejoin:round;stroke-miterlimit:4;stroke-dasharray:none;stroke-opacity:1" />
      <path
         sodipodi:nodetypes="cc"
         inkscape:connector-curvature="0"
         id="path1048"
         d="m 80.73711,218.92106 c -5.32604,-3.41098 -11.98617,-3.27851 -17.5759,-2.26785"
         style="fill:none;stroke:#666666;stroke-width:2;stroke-linecap:round;stroke-linejoin:miter;stroke-miterlimit:4;stroke-dasharray:none;stroke-opacity:1" />
      <path
         sodipodi:nodetypes="cc"
         inkscape:connector-curvature="0"
         id="path1050"
         d="m 79.31968,222.98431 c -4.81688,-0.15287 -11.33707,1.39033 -15.40252,2.74032"
         style="fill:none;stroke:#666666;stroke-width:2;stroke-linecap:round;stroke-linejoin:miter;stroke-miterlimit:4;stroke-dasharray:none;stroke-opacity:1" />
      <path
         sodipodi:nodetypes="cc"
         inkscape:connector-curvature="0"
         id="path1052"
         d="m 80.17013,227.70901 c -3.59655,0.44421 -9.1357,1.82434 -13.22916,6.52009"
         style="fill:none;stroke:#666666;stroke-width:2;stroke-linecap:round;stroke-linejoin:miter;stroke-miterlimit:4;stroke-dasharray:none;stroke-opacity:1" />
      <path
         sodipodi:nodetypes="cc"
         inkscape:connector-curvature="0"
         id="path1054"
         d="m 126.56672,214.57434 c 5.2992,-6.60397 11.17474,-11.19072 17.48139,-14.2686"
         style="fill:none;stroke:#666666;stroke-width:2;stroke-linecap:round;stroke-linejoin:miter;stroke-miterlimit:4;stroke-dasharray:none;stroke-opacity:1" />
      <path
         sodipodi:nodetypes="cc"
         inkscape:connector-curvature="0"
         id="path1056"
         d="m 130.72444,219.29904 c 5.67219,-4.04292 11.46276,-7.13871 17.38691,-9.16592"
         style="fill:none;stroke:#666666;stroke-width:2;stroke-linecap:round;stroke-linejoin:miter;stroke-miterlimit:4;stroke-dasharray:none;stroke-opacity:1" />
      <path
         sodipodi:nodetypes="cc"
         inkscape:connector-curvature="0"
         id="path1058"
         d="m 131.76388,223.1733 c 4.12624,-1.33487 10.33135,-1.96488 14.45759,-1.03943"
         style="fill:none;stroke:#666666;stroke-width:2;stroke-linecap:round;stroke-linejoin:miter;stroke-miterlimit:4;stroke-dasharray:none;stroke-opacity:1" />
      <path
         sodipodi:nodetypes="cc"
         inkscape:connector-curvature="0"
         id="path1060"
         d="m 93.67796,231.00597 c 2.35323,4.2037 20.70317,2.48189 19.51069,-0.15517"
         style="fill:none;stroke:#666666;stroke-width:2;stroke-linecap:round;stroke-linejoin:miter;stroke-miterlimit:4;stroke-dasharray:none;stroke-opacity:1" />
      <path
         transform="matrix(0.26458333,0,0,0.26458333,0,87)"
         inkscape:connector-curvature="0"
         id="path1351"
         d="m 377.14941,549.30957 c -3.99715,-0.42806 -10.37498,-1.78581 -12.99727,-2.76694 l -2.79726,-1.04659 5.49815,-1.399 c 6.92144,-1.76116 10.32081,-3.04822 14.11488,-5.34414 2.76044,-1.67044 3.22188,-1.79145 5.77795,-1.51533 5.7811,0.62453 36.13305,5.53738 36.57137,5.91955 1.92052,1.67452 -8.43616,4.69381 -20.51529,5.98085 -4.56165,0.48604 -21.64903,0.60035 -25.65253,0.1716 z"
         style="opacity:1;fill:#ffaaaa;fill-opacity:1;stroke:none;stroke-width:7.63579893;stroke-linecap:round;stroke-linejoin:round;stroke-miterlimit:4;stroke-dasharray:none;stroke-dashoffset:0;stroke-opacity:1;paint-order:normal" />
    </g>
  </g>
</svg>
