<?xml version="1.0" encoding="UTF-8" standalone="no"?>
<!-- Created with Inkscape (http://www.inkscape.org/) -->

<svg
   xmlns:dc="http://purl.org/dc/elements/1.1/"
   xmlns:cc="http://creativecommons.org/ns#"
   xmlns:rdf="http://www.w3.org/1999/02/22-rdf-syntax-ns#"
   xmlns:svg="http://www.w3.org/2000/svg"
   xmlns="http://www.w3.org/2000/svg"
   xmlns:sodipodi="http://sodipodi.sourceforge.net/DTD/sodipodi-0.dtd"
   xmlns:inkscape="http://www.inkscape.org/namespaces/inkscape"
   width="124.11104mm"
   height="30.874014mm"
   viewBox="0 0 124.11104 30.874014"
   version="1.1"
   id="svg1531"
   sodipodi:docname="logo.svg"
   inkscape:export-filename="C:\Users\watanabe_azusa\Desktop\logo.png"
   inkscape:export-xdpi="45.255699"
   inkscape:export-ydpi="45.255699"
   inkscape:version="0.92.5 (2060ec1f9f, 2020-04-08)">
  <defs
     id="defs1525">
    <filter
       inkscape:collect="always"
       style="color-interpolation-filters:sRGB"
       id="filter1285-9">
      <feBlend
         inkscape:collect="always"
         mode="darken"
         in2="BackgroundImage"
         id="feBlend1287-5" />
    </filter>
  </defs>
  <sodipodi:namedview
     id="base"
     pagecolor="#ffffff"
     bordercolor="#666666"
     borderopacity="1.0"
     inkscape:pageopacity="0.0"
     inkscape:pageshadow="2"
     inkscape:zoom="1.979899"
     inkscape:cx="231.00255"
     inkscape:cy="7.9800519"
     inkscape:document-units="mm"
     inkscape:current-layer="layer1"
     showgrid="false"
     inkscape:pagecheckerboard="true"
     fit-margin-left="5"
     fit-margin-top="2"
     fit-margin-right="5"
     fit-margin-bottom="2" />
  <metadata
     id="metadata1528">
    <rdf:RDF>
      <cc:Work
         rdf:about="">
        <dc:format>image/svg+xml</dc:format>
        <dc:type
           rdf:resource="http://purl.org/dc/dcmitype/StillImage" />
        <dc:title />
      </cc:Work>
    </rdf:RDF>
  </metadata>
  <g
     inkscape:label="レイヤー 1"
     inkscape:groupmode="layer"
     id="layer1"
     transform="translate(-14.991458,-46.967165)">
    <g
       aria-label="分け次郎"
       style="font-style:normal;font-variant:normal;font-weight:500;font-stretch:normal;font-size:21.08171844px;line-height:1.5;font-family:'Noto Sans JP';-inkscape-font-specification:'Noto Sans JP, Medium';font-variant-ligatures:normal;font-variant-caps:normal;font-variant-numeric:normal;font-feature-settings:normal;text-align:center;letter-spacing:0px;word-spacing:0px;writing-mode:lr-tb;text-anchor:middle;fill:#ffffff;fill-opacity:1;stroke:#ffffff;stroke-width:0.3162258"
       id="text1535">
      <path
         d="m 33.720929,61.185138 q 0.576453,0.411752 0.08235,0.741154 -0.988206,3.952823 -1.647009,6.093935 -0.576454,1.564659 -1.482309,2.552864 -0.576453,0.905856 -0.905855,0.247052 -0.905855,-1.647009 -2.552865,-2.470514 -0.1647,-0.247052 0.08235,-0.247052 0.741154,0.247052 1.235257,0.411753 0.658804,0.164701 1.235257,0.164701 0.658804,0 1.399958,-2.964617 0.576453,-1.976412 0.905855,-3.54107 0.08235,-0.658804 -0.329402,-0.741155 -1.647009,0.329402 -3.705771,0.741155 0.494103,0.658803 0.576453,1.482308 -0.164701,0.494103 -0.823504,1.235257 -1.317608,1.81171 -2.799916,3.129318 -1.482309,1.235257 -3.45872,2.223463 -0.247051,0 -0.08235,-0.247052 2.388163,-1.81171 3.788121,-3.788121 1.894061,-2.717566 1.894061,-3.294019 0,-0.576454 -0.329402,-0.494103 -1.235257,0.329402 -2.058762,0.576453 -0.576453,-0.164701 -0.905855,-0.411752 -0.576453,-0.494103 0.329402,-0.494103 3.211668,-0.576453 6.835089,-1.235257 0.988206,-0.329402 1.317608,-0.494103 0.658803,0.329402 1.399958,0.823505 z m -4.364575,-7.658594 q 1.317607,0.823505 2.305813,1.72936 1.72936,1.399958 3.54107,2.552865 1.482309,0.988205 3.623421,2.058761 0.329402,0.247052 -0.164701,0.411753 -0.658804,0.164701 -1.72936,0.247051 -0.658804,0 -1.152907,0 -0.658803,0 -1.152906,-0.08235 -1.152907,-1.482309 -2.388164,-3.046968 -1.482308,-1.976411 -2.635215,-2.964617 -0.905855,-0.658803 -1.564659,-0.741154 -0.164701,0.08235 -0.411752,0.164701 -0.494103,-0.329402 -0.494103,-0.658804 0.08235,-0.164701 0.411752,-0.247051 1.070556,0.08235 1.811711,0.576453 z m -2.799916,2.717566 q 0.329402,0.741154 -0.08235,0.905855 -1.647009,1.647009 -3.294019,2.964617 -1.81171,1.399958 -2.882266,1.81171 -0.247051,0 -0.08235,-0.247051 1.482309,-1.317608 2.635216,-2.635215 1.152906,-1.317608 1.976411,-2.799916 0,-0.658804 -0.08235,-1.152907 -0.08235,-0.329402 0.411753,-0.164701 0.823504,0.247052 1.399958,1.317608 z"
         style="font-style:normal;font-variant:normal;font-weight:normal;font-stretch:normal;font-size:21.08172035px;line-height:2.5;font-family:HGSeikaishotaiPRO;-inkscape-font-specification:'HGSeikaishotaiPRO, Normal';font-variant-ligatures:normal;font-variant-caps:normal;font-variant-numeric:normal;font-feature-settings:normal;text-align:center;writing-mode:lr-tb;text-anchor:middle;fill:#ffffff;stroke:#ffffff;stroke-width:0.3162258"
         id="path207" />
      <path
         d="m 52.826238,53.855946 q 0.658803,0 0.988205,0.08235 0.576454,0.1647 1.152907,0.658803 0.329402,0.247052 0.08235,0.576454 l 0.08235,3.129317 q 0.411752,-0.08235 0.905855,-0.411752 0.411752,-0.329402 0.741154,-0.164701 1.235257,0.329402 1.317608,1.070556 0,0.329402 -0.494103,0.411753 -0.905855,-0.08235 -2.470514,0.164701 v 2.717565 q 0,2.470514 -0.823505,4.199874 -0.658804,1.72936 -2.470514,3.788122 -0.329402,0.164701 -0.247051,-0.164701 1.399958,-2.470514 1.81171,-4.364575 0.411752,-2.058762 0.411752,-6.011584 -1.81171,0.411752 -3.705771,0.905855 -0.164701,0.08235 -0.411752,0.08235 -0.411753,-0.08235 -0.658804,-0.329402 -0.247051,-0.247051 0.08235,-0.329402 0.411752,0 0.988205,-0.164701 1.81171,-0.494102 3.705771,-1.070556 0,-1.72936 -0.164701,-2.882266 -0.08235,-0.576453 -0.411752,-0.905855 -0.411752,-0.247052 -0.576453,-0.658804 -0.164701,-0.329402 0.164701,-0.329402 z m -7.246842,1.894061 q 0.494103,0.658804 0.576454,1.482308 -0.988206,2.964617 -1.235257,4.282225 -0.247052,1.317607 -0.247052,2.717565 0,1.152907 0.247052,1.811711 0.247051,0.329402 0.494102,-0.08235 0.741155,-1.317607 1.399958,-2.470514 0.247052,-0.247051 0.247052,0.08235 -0.905855,2.635215 -0.988206,4.858677 0,0.658804 -0.576453,0.658804 -0.823505,0 -1.317608,-1.647009 -0.494103,-1.482309 -0.494103,-3.705772 0.08235,-2.305813 0.823505,-6.917439 0,-0.411752 -0.08235,-0.741154 -0.164701,-0.658804 -0.494103,-0.988206 -0.164701,-0.411752 0.247051,-0.329402 0.823505,0.411753 1.399958,0.988206 z"
         style="font-style:normal;font-variant:normal;font-weight:normal;font-stretch:normal;font-size:21.08172035px;line-height:2.5;font-family:HGSeikaishotaiPRO;-inkscape-font-specification:'HGSeikaishotaiPRO, Normal';font-variant-ligatures:normal;font-variant-caps:normal;font-variant-numeric:normal;font-feature-settings:normal;text-align:center;writing-mode:lr-tb;text-anchor:middle;fill:#ffffff;stroke:#ffffff;stroke-width:0.3162258"
         id="path209" />
      <path
         d="m 73.084453,60.196932 q 0.247052,0.329402 0,0.741154 -0.247051,1.317608 -0.494103,2.305814 2.058762,2.552864 4.858678,4.611626 1.317608,0.988206 3.705771,1.894061 0.494103,0.164701 0,0.411752 -0.988205,0.08235 -2.141112,0.164701 h -0.658804 q -0.741154,0 -1.317607,-0.08235 -1.72936,-1.72936 -4.611626,-6.505688 -1.235258,2.635216 -2.470515,3.705772 -1.564658,1.564659 -4.693976,2.717565 -0.329402,0 -0.247052,-0.247051 3.129318,-1.811711 4.776328,-4.364575 1.647009,-2.552865 1.647009,-4.941028 0,-0.411753 -0.247052,-0.741155 -0.1647,-0.247051 -0.08235,-0.411752 0,-0.247051 0.411752,-0.164701 0.658804,0.164701 0.905856,0.247052 0.411752,0.329401 0.658803,0.658803 z m -1.235257,-6.835089 q 0.576454,0.247052 0.905855,0.658804 0.329402,0.411752 -0.08235,0.823505 -0.905855,1.647009 -1.81171,3.046967 h 0.741154 q 2.223463,-0.576453 4.446925,-1.235257 l 0.576454,-0.329402 q 0.247051,-0.329402 0.494102,-0.08235 0.988206,0.658803 1.72936,1.317607 0.411753,0.329402 0,0.576454 -0.329402,0.08235 -0.658804,0.247051 l -3.294018,2.058762 q -0.329402,0.164701 -0.08235,-0.247052 0.823505,-1.152906 1.564659,-2.470514 0.164701,-0.494103 -0.411752,-0.329402 -2.552865,0.741155 -4.611627,1.399958 -0.494102,0 -0.988205,-0.164701 -0.823505,1.070556 -1.72936,2.058762 -0.411752,0.164701 -0.164701,-0.247051 1.070556,-1.811711 1.976411,-4.199874 0.494103,-1.235257 0.494103,-1.976412 0,-0.411752 -0.247051,-0.658803 -0.164701,-0.164701 -0.329402,-0.329402 -0.08235,-0.247052 0.329402,-0.247052 0.576453,0 1.152906,0.329402 z M 63.6965,67.279073 q -0.247052,0.823504 -0.658804,0.576453 -0.494103,-0.411752 -0.905855,-0.905855 -0.329402,-0.494103 -0.411753,-1.070556 0,-0.494103 0.329402,-0.411753 0.164701,0.08235 0.411753,0.08235 0.411752,0 1.070556,-0.823505 1.235257,-1.482308 2.717565,-3.788122 0.411753,-0.247051 0.247052,0.247052 -0.988206,2.799916 -2.799916,6.093935 z m 2.141112,-10.787912 q 0.658804,0.741154 0.905855,1.81171 0,0.411753 -0.329402,0.494103 -0.494103,0 -1.399958,-0.741154 -1.152906,-1.070556 -1.647009,-2.141112 -0.164701,-0.411753 0.164701,-0.247052 2.058762,0.658804 2.305813,0.823505 z"
         style="font-style:normal;font-variant:normal;font-weight:normal;font-stretch:normal;font-size:21.08172035px;line-height:2.5;font-family:HGSeikaishotaiPRO;-inkscape-font-specification:'HGSeikaishotaiPRO, Normal';font-variant-ligatures:normal;font-variant-caps:normal;font-variant-numeric:normal;font-feature-settings:normal;text-align:center;writing-mode:lr-tb;text-anchor:middle;fill:#ffffff;stroke:#ffffff;stroke-width:0.3162258"
         id="path211" />
      <path
         d="m 99.436606,55.173554 q 0.329402,0.247051 0.576454,0.494102 0.1647,0.164701 -0.411753,0.494103 -1.317608,1.64701 -2.717566,3.211669 v 0.247051 q 2.223463,1.894061 2.799916,2.882266 0.658803,1.152907 0.658803,2.717566 -0.0824,0.247051 -0.0824,0.576453 -0.0823,0.576454 -0.411752,1.235257 -0.247051,0.494103 -0.658804,0.329402 -1.482308,-1.564659 -2.799916,-2.141112 -0.741154,-0.329402 -0.741154,-0.494103 0.08235,-0.08235 0.411752,0 1.152907,0.08235 1.72936,0.164701 0.411753,0 0.741154,-0.08235 0.164701,-0.08235 0.164701,-0.576454 v -0.164701 q 0,-0.494102 -0.576453,-1.647009 -0.658804,-1.152907 -1.72936,-2.388164 -0.329402,-0.164701 -0.164701,-0.411752 0.741155,-1.81171 1.482309,-3.623421 v -0.247051 q 0,-0.164701 -0.329402,-0.08235 -2.470514,0.905856 -2.882267,0.988206 0.08235,0.08235 0.08235,0.741154 -0.164701,5.105729 -0.164701,8.893851 0,2.223463 -0.247051,3.952823 -0.329402,1.647009 -0.658804,1.647009 -0.329402,0 -0.411753,-0.494103 -0.08235,-0.494103 -0.08235,-1.152906 0,-6.423337 0,-12.929024 0,-0.411753 -0.247051,-0.988206 -0.411753,-0.823505 0.164701,-0.741154 0.329401,0.08235 0.658803,0.247051 0.247052,0.164701 0.658804,0.08235 1.317608,-0.329402 2.141112,-0.658804 0.823505,-0.329402 1.235257,-0.576453 0.494103,-0.494103 0.905855,-0.247052 0.494103,0.329402 0.905856,0.741155 z m -7.905645,2.058761 -0.329402,0.411753 q -0.494103,2.058761 -0.988206,4.035173 -0.08235,0.411752 -0.247051,0.411752 -0.411753,0.08235 -0.576454,-0.164701 -0.08235,-0.164701 -0.329402,-0.08235 -1.399958,0.411752 -2.882266,0.741154 -0.164701,2.058762 -0.164701,3.129318 0,0.494103 0.329402,0.247051 1.070556,-0.576453 3.211668,-2.058762 -0.411752,-0.658803 -0.658804,-1.235257 -0.1647,-0.494102 0.164701,-0.247051 0.411753,0.247051 1.070557,0.411752 0.905855,0.411753 1.235257,1.976412 0,0.905855 -0.411753,0.823504 -0.247051,-0.08235 -1.152906,-1.317607 -1.894061,1.647009 -3.952823,4.199874 -0.08235,0.247051 -0.247051,0.329402 -0.329402,-0.08235 -0.741155,-0.988206 -0.247051,-0.658804 -0.247051,-1.152907 0.08235,-0.576453 0.247051,-1.81171 0.329402,-3.870472 0.329402,-6.011584 0,-0.658804 -0.08235,-0.823505 -0.247052,-0.247051 -0.329402,-0.411752 -0.247051,-0.411753 0.164701,-0.411753 0.164701,0 0.576453,0.164701 0.494103,0 1.811711,-0.329402 0.823504,-0.411752 2.388163,-0.905855 0.164701,-0.329402 0.411753,-0.164701 0.658803,0.411753 1.317607,0.823505 0.08235,0.164701 0.08235,0.411752 z m -5.18808,1.811711 q 0,0.247051 0,0.494103 1.070556,-0.329402 1.564659,-0.741155 0.329402,-0.164701 0.905855,0 0.494103,0.329402 -0.08235,0.658804 -0.576454,0.247051 -1.317608,0.494103 -0.576453,0.164701 -1.070556,0.247051 0,0.905855 -0.08235,1.72936 0.411753,-0.08235 2.882267,-1.070556 0.247051,-1.647009 0.494103,-3.376369 v -0.164701 q 0,-0.164701 -0.164701,-0.247052 h -0.164701 q -1.564659,0.494103 -3.211669,0.905856 0.247052,0.247051 0.247052,1.070556 z m 1.72936,-5.846884 q 0.576453,0.08235 0.905855,0.494103 0.494103,0.576453 0.494103,1.070556 0,0.411753 -0.411753,0.411753 -0.247051,0 -1.235257,-0.494103 -0.988205,-0.576454 -1.564659,-1.399958 -0.247051,-0.576454 0.411753,-0.247052 0.741154,0.164701 1.399958,0.164701 z"
         style="font-style:normal;font-variant:normal;font-weight:normal;font-stretch:normal;font-size:21.08172035px;line-height:2.5;font-family:HGSeikaishotaiPRO;-inkscape-font-specification:'HGSeikaishotaiPRO, Normal';font-variant-ligatures:normal;font-variant-caps:normal;font-variant-numeric:normal;font-feature-settings:normal;text-align:center;writing-mode:lr-tb;text-anchor:middle;fill:#ffffff;stroke:#ffffff;stroke-width:0.3162258"
         id="path213" />
    </g>
    <flowRoot
       xml:space="preserve"
       id="flowRoot1537"
       style="font-style:normal;font-variant:normal;font-weight:500;font-stretch:normal;font-size:66.66666412px;line-height:1.5;font-family:'Noto Sans JP';-inkscape-font-specification:'Noto Sans JP, Medium';font-variant-ligatures:normal;font-variant-caps:normal;font-variant-numeric:normal;font-feature-settings:normal;text-align:center;letter-spacing:0px;word-spacing:0px;writing-mode:lr-tb;text-anchor:middle;fill:#000000;fill-opacity:1;stroke:none"
       transform="scale(0.26458333)"><flowRegion
         id="flowRegion1539"><rect
           id="rect1541"
           width="30.304577"
           height="136.37059"
           x="208.09143"
           y="69.940735" /></flowRegion><flowPara
         id="flowPara1543" /></flowRoot>    <path
       id="rect1330-5"
       d="m 47.190145,43.275996 14.0254,130.472644 c -14.6968,26.16097 -21.2753,55.16021 -23.0996,83.38868 -2.8505,44.10743 13.161,93.334 58.8809,120.69531 38.477795,23.02724 80.478295,42.37257 142.257795,40.60742 50.2853,-1.43674 85.0311,-18.72339 122.8201,-48.64029 45.042,-45.44967 55.5841,-71.40182 53.4358,-113.73666 -1.5393,-30.33493 -12.7484,-61.36779 -33.4825,-88.82617 l -2.7475,-129.186744 -79.6782,61.1008 c -27.0727,-13.5598 -56.4328,-21.5957 -85.2305,-21.5957 -25.1457,0 -50.8686,13.45776 -72.5119,24.145404 z"
       style="display:inline;opacity:1;fill:#ffffff;fill-opacity:1;stroke:#4d4d4d;stroke-width:19.39293644;stroke-linecap:round;stroke-linejoin:round;stroke-miterlimit:4;stroke-dasharray:none;stroke-dashoffset:0;stroke-opacity:1;paint-order:normal;filter:url(#filter1285-9);image-rendering:auto"
       inkscape:connector-curvature="0"
       sodipodi:nodetypes="ccssscscccscc"
       transform="matrix(0.0618782,0,0,0.0618782,106.39628,48.306136)" />
    <path
       transform="matrix(0.20273864,0,0,0.20273864,98.879539,23.617483)"
       style="display:inline;opacity:1;fill:none;fill-opacity:1;stroke:#4d4d4d;stroke-width:1.96370018;stroke-linecap:round;stroke-linejoin:round;stroke-miterlimit:4;stroke-dasharray:none;stroke-dashoffset:0;stroke-opacity:1;paint-order:normal;filter:url(#filter1285-9);image-rendering:auto"
       d="m 99.893042,193.32548 c -1.237429,2.83758 -4.279206,3.8985 -5.59025,4.17719 -2.956248,0.62841 -6.987307,0.56841 -11.168795,-0.27054 -3.439675,-0.6901 -7.007526,-1.71316 -9.55573,-3.94572 -2.070998,-1.81446 -3.127432,-4.03356 -2.488503,-5.62319 0.656049,-1.57542 2.846299,-2.69779 5.857108,-3.23887 3.010809,-0.54109 6.842178,-0.50088 10.780467,0.24887 3.938279,0.74975 7.356932,1.90033 9.38875,3.59084 2.364965,1.96769 3.304731,3.58255 2.776953,5.06142 z"
       id="path856-8"
       inkscape:connector-curvature="0"
       sodipodi:nodetypes="cssscsssc" />
    <path
       style="color:#000000;font-style:normal;font-variant:normal;font-weight:normal;font-stretch:normal;font-size:medium;line-height:normal;font-family:sans-serif;font-variant-ligatures:normal;font-variant-position:normal;font-variant-caps:normal;font-variant-numeric:normal;font-variant-alternates:normal;font-feature-settings:normal;text-indent:0;text-align:start;text-decoration:none;text-decoration-line:none;text-decoration-style:solid;text-decoration-color:#000000;letter-spacing:normal;word-spacing:normal;text-transform:none;writing-mode:lr-tb;direction:ltr;text-orientation:mixed;dominant-baseline:auto;baseline-shift:baseline;text-anchor:start;white-space:normal;shape-padding:0;clip-rule:nonzero;display:inline;overflow:visible;visibility:visible;opacity:1;isolation:auto;mix-blend-mode:normal;color-interpolation:sRGB;color-interpolation-filters:linearRGB;solid-color:#000000;solid-opacity:1;vector-effect:none;fill:#4d4d4d;fill-opacity:1;fill-rule:nonzero;stroke:none;stroke-width:2.30711174;stroke-linecap:round;stroke-linejoin:round;stroke-miterlimit:4;stroke-dasharray:none;stroke-dashoffset:0;stroke-opacity:1;paint-order:normal;filter:url(#filter1285-9);color-rendering:auto;image-rendering:auto;shape-rendering:auto;text-rendering:auto;enable-background:accumulate"
       d="m 86.076172,183.89844 c -0.690007,0.097 -0.763679,0.37775 -0.910156,0.56054 -0.146478,0.1828 -0.261827,0.37314 -0.382813,0.60938 -0.483942,0.94497 -1.425499,2.3075 -1.605469,5.63281 -0.132164,2.442 0.120325,4.45914 0.674357,5.71573 0.554032,1.25659 1.273112,1.46147 2.362753,1.50302 0.60371,0.023 1.257991,-0.16536 1.738281,-0.5664 0.48029,-0.40105 0.771704,-0.93797 0.966797,-1.52149 0.390187,-1.16704 0.541359,-2.5343 0.512806,-4.49204 -0.02988,-2.68834 -0.129448,-5.68732 -1.04656,-6.34397 -0.01233,-0.16486 -0.959887,-0.3499 -1.188902,-0.64446 -0.229019,-0.29455 -0.776091,-0.50163 -1.121094,-0.45312 z m -0.914063,1.15234 c -0.03748,0.11611 0.06377,0.1952 0.05469,0.31445 -0.0057,-0.0395 -0.05654,-0.12103 -0.05859,-0.14843 -0.01521,-0.20332 0.01383,-0.19677 0.0039,-0.16602 z"
       id="path873-7"
       inkscape:connector-curvature="0"
       transform="matrix(0.20273864,0,0,0.20273864,98.879539,23.617483)"
       sodipodi:nodetypes="cccssccscccccccc" />
    <path
       transform="matrix(0.20273864,0,0,0.20273864,98.879539,23.617483)"
       style="display:inline;opacity:1;fill:none;fill-opacity:1;stroke:#4d4d4d;stroke-width:1.96104336;stroke-linecap:round;stroke-linejoin:round;stroke-miterlimit:4;stroke-dasharray:none;stroke-dashoffset:0;stroke-opacity:1;paint-order:normal;filter:url(#filter1285-9);image-rendering:auto"
       d="m 110.95151,193.75905 c 1.33145,0.76754 1.93606,0.80817 4.97312,0.22153 2.8639,-0.55318 4.32546,-1.48211 7.44864,-3.20844 3.09095,-1.70853 7.12455,-4.11951 10.33385,-7.95219 0.89829,-1.07276 1.31358,-3.16844 0.71915,-4.42573 -0.85655,-2.76324 -6.28912,-2.65312 -9.01763,-1.51789 -2.51854,1.04787 -5.69992,2.16774 -8.56253,4.35856 -2.86261,2.19081 -5.14617,4.5466 -6.09781,6.8613 -1.10767,2.69424 -0.60051,5.04644 0.20321,5.66286 z"
       id="path856-8-5"
       inkscape:connector-curvature="0"
       sodipodi:nodetypes="cssscsssc" />
    <path
       transform="matrix(0.20273864,0,0,0.20273864,98.879539,23.617483)"
       style="display:inline;opacity:1;fill:#4d4d4d;fill-opacity:1;stroke:none;stroke-width:3.85659885;stroke-linecap:round;stroke-linejoin:round;stroke-miterlimit:4;stroke-dasharray:none;stroke-dashoffset:0;stroke-opacity:1;paint-order:normal;filter:url(#filter1285-9);image-rendering:auto"
       d="m 125.57672,183.39626 c 0.35116,1.78523 0.3859,4.91976 0.0645,6.04859 -0.28188,0.99006 -0.94484,0.063 -2.211,2.17669 -2.59054,1.29864 -3.22439,1.64143 -3.67477,-5.57162 -0.33972,-5.44067 0.0358,-5.35179 -0.12337,-6.98277 -0.11509,-1.17996 2.11279,-0.64297 4.08203,-1.10525 0,0 1.11026,1.60953 1.86262,5.43436 z"
       id="path873-7-6"
       inkscape:connector-curvature="0"
       sodipodi:nodetypes="sscsscs" />
    <path
       style="color:#000000;font-style:normal;font-variant:normal;font-weight:normal;font-stretch:normal;font-size:medium;line-height:normal;font-family:sans-serif;font-variant-ligatures:normal;font-variant-position:normal;font-variant-caps:normal;font-variant-numeric:normal;font-variant-alternates:normal;font-feature-settings:normal;text-indent:0;text-align:start;text-decoration:none;text-decoration-line:none;text-decoration-style:solid;text-decoration-color:#000000;letter-spacing:normal;word-spacing:normal;text-transform:none;writing-mode:lr-tb;direction:ltr;text-orientation:mixed;dominant-baseline:auto;baseline-shift:baseline;text-anchor:start;white-space:normal;shape-padding:0;clip-rule:nonzero;display:inline;overflow:visible;visibility:visible;opacity:1;isolation:auto;mix-blend-mode:normal;color-interpolation:sRGB;color-interpolation-filters:linearRGB;solid-color:#000000;solid-opacity:1;vector-effect:none;fill:#4d4d4d;fill-opacity:1;fill-rule:nonzero;stroke:none;stroke-width:1.96104491;stroke-linecap:round;stroke-linejoin:round;stroke-miterlimit:4;stroke-dasharray:none;stroke-dashoffset:0;stroke-opacity:1;filter:url(#filter1285-9);color-rendering:auto;image-rendering:auto;shape-rendering:auto;text-rendering:auto;enable-background:accumulate"
       d="m 97.554688,209.35938 a 0.98061973,0.98061973 0 0 0 -0.980469,0.98046 c -0.03199,2.22553 1.260734,3.96739 2.984375,5.00391 1.723636,1.03652 3.886806,1.49848 5.998046,1.49609 2.11124,-0.002 4.18026,-0.46093 5.72852,-1.50195 1.54825,-1.04102 2.51583,-2.88754 1.98632,-4.97266 a 0.98127929,0.98127929 0 1 0 -1.90234,0.48243 c 0.34663,1.36495 -0.10699,2.14202 -1.17969,2.86328 -1.07269,0.72126 -2.8242,1.16592 -4.63672,1.16797 -1.81251,0.002 -3.67574,-0.42985 -4.98437,-1.2168 -1.30863,-0.78695 -2.054708,-1.79904 -2.033204,-3.29492 a 0.98061973,0.98061973 0 0 0 -0.980468,-1.00781 z"
       id="path909"
       inkscape:connector-curvature="0"
       transform="matrix(0.20273864,0,0,0.20273864,98.879539,23.617483)" />
    <path
       transform="matrix(0.20273864,0,0,0.20273864,98.879539,23.617483)"
       style="display:inline;fill:none;stroke:#4d4d4d;stroke-width:1.96104336;stroke-linecap:round;stroke-linejoin:round;stroke-miterlimit:4;stroke-dasharray:none;stroke-opacity:1;filter:url(#filter1285-9);image-rendering:auto"
       d="m 89.285508,216.20382 c -1.44914,2.51643 -1.320261,7.09798 1.375316,8.55096 2.075243,1.15956 2.79116,1.76536 6.59568,1.99813 2.71315,-0.34463 7.628116,-1.01385 9.178476,-2.71528 l 0.14299,-6.39668 c 0.30634,10.69818 -0.2169,3.54378 -0.14299,6.39668 4.20943,0.44734 9.6338,1.72568 12.98276,1.86077 4.46063,0.12916 6.88598,-0.54419 9.50221,-2.03218 -0.80388,0.0435 2.65162,-0.22876 2.21511,-7.33419 -0.13866,-1.35007 -0.0656,-3.64022 -5.7751,-3.03594"
       id="path1046"
       inkscape:connector-curvature="0"
       sodipodi:nodetypes="cccccccccc" />
    <path
       style="color:#000000;font-style:normal;font-variant:normal;font-weight:normal;font-stretch:normal;font-size:medium;line-height:normal;font-family:sans-serif;font-variant-ligatures:normal;font-variant-position:normal;font-variant-caps:normal;font-variant-numeric:normal;font-variant-alternates:normal;font-feature-settings:normal;text-indent:0;text-align:start;text-decoration:none;text-decoration-line:none;text-decoration-style:solid;text-decoration-color:#000000;letter-spacing:normal;word-spacing:normal;text-transform:none;writing-mode:lr-tb;direction:ltr;text-orientation:mixed;dominant-baseline:auto;baseline-shift:baseline;text-anchor:start;white-space:normal;shape-padding:0;clip-rule:nonzero;display:inline;overflow:visible;visibility:visible;opacity:1;isolation:auto;mix-blend-mode:normal;color-interpolation:sRGB;color-interpolation-filters:linearRGB;solid-color:#000000;solid-opacity:1;vector-effect:none;fill:#4d4d4d;fill-opacity:1;fill-rule:nonzero;stroke:none;stroke-width:1.70525503;stroke-linecap:round;stroke-linejoin:miter;stroke-miterlimit:4;stroke-dasharray:none;stroke-dashoffset:0;stroke-opacity:1;filter:url(#filter1285-9);color-rendering:auto;image-rendering:auto;shape-rendering:auto;text-rendering:auto;enable-background:accumulate"
       d="m 78.164062,212.90234 c -1.292509,0.0915 -2.553233,0.26972 -3.75,0.49414 a 0.85271278,0.85271278 0 1 0 0.314454,1.67579 c 4.572415,-0.85747 9.908318,-0.93319 14.085937,1.84179 a 0.85271278,0.85271278 0 1 0 0.943359,-1.41992 c -3.555253,-2.36158 -7.71622,-2.86623 -11.59375,-2.5918 z"
       id="path1048"
       inkscape:connector-curvature="0"
       transform="matrix(0.20273864,0,0,0.20273864,98.879539,23.617483)" />
    <path
       style="color:#000000;font-style:normal;font-variant:normal;font-weight:normal;font-stretch:normal;font-size:medium;line-height:normal;font-family:sans-serif;font-variant-ligatures:normal;font-variant-position:normal;font-variant-caps:normal;font-variant-numeric:normal;font-variant-alternates:normal;font-feature-settings:normal;text-indent:0;text-align:start;text-decoration:none;text-decoration-line:none;text-decoration-style:solid;text-decoration-color:#000000;letter-spacing:normal;word-spacing:normal;text-transform:none;writing-mode:lr-tb;direction:ltr;text-orientation:mixed;dominant-baseline:auto;baseline-shift:baseline;text-anchor:start;white-space:normal;shape-padding:0;clip-rule:nonzero;display:inline;overflow:visible;visibility:visible;opacity:1;isolation:auto;mix-blend-mode:normal;color-interpolation:sRGB;color-interpolation-filters:linearRGB;solid-color:#000000;solid-opacity:1;vector-effect:none;fill:#4d4d4d;fill-opacity:1;fill-rule:nonzero;stroke:none;stroke-width:1.70525503;stroke-linecap:round;stroke-linejoin:miter;stroke-miterlimit:4;stroke-dasharray:none;stroke-dashoffset:0;stroke-opacity:1;filter:url(#filter1285-9);color-rendering:auto;image-rendering:auto;shape-rendering:auto;text-rendering:auto;enable-background:accumulate"
       d="m 88.126953,218.88086 c -4.246565,-0.13978 -9.721334,1.22533 -13.201172,2.42383 a 0.85298756,0.85298756 0 1 0 0.554688,1.61328 c 3.32738,-1.14599 8.770992,-2.45969 12.589843,-2.33399 a 0.85271278,0.85271278 0 1 0 0.05664,-1.70312 z"
       id="path1050"
       inkscape:connector-curvature="0"
       transform="matrix(0.20273864,0,0,0.20273864,98.879539,23.617483)" />
    <path
       style="color:#000000;font-style:normal;font-variant:normal;font-weight:normal;font-stretch:normal;font-size:medium;line-height:normal;font-family:sans-serif;font-variant-ligatures:normal;font-variant-position:normal;font-variant-caps:normal;font-variant-numeric:normal;font-variant-alternates:normal;font-feature-settings:normal;text-indent:0;text-align:start;text-decoration:none;text-decoration-line:none;text-decoration-style:solid;text-decoration-color:#000000;letter-spacing:normal;word-spacing:normal;text-transform:none;writing-mode:lr-tb;direction:ltr;text-orientation:mixed;dominant-baseline:auto;baseline-shift:baseline;text-anchor:start;white-space:normal;shape-padding:0;clip-rule:nonzero;display:inline;overflow:visible;visibility:visible;opacity:1;isolation:auto;mix-blend-mode:normal;color-interpolation:sRGB;color-interpolation-filters:linearRGB;solid-color:#000000;solid-opacity:1;vector-effect:none;fill:#4d4d4d;fill-opacity:1;fill-rule:nonzero;stroke:none;stroke-width:1.70525503;stroke-linecap:round;stroke-linejoin:miter;stroke-miterlimit:4;stroke-dasharray:none;stroke-dashoffset:0;stroke-opacity:1;filter:url(#filter1285-9);color-rendering:auto;image-rendering:auto;shape-rendering:auto;text-rendering:auto;enable-background:accumulate"
       d="m 88.847656,222.98047 a 0.85271278,0.85271278 0 0 0 -0.144531,0.008 c -3.122381,0.39998 -8.003224,1.65447 -11.621094,5.95899 a 0.85325058,0.85325058 0 1 0 1.306641,1.09765 c 3.236248,-3.85046 7.631545,-4.99378 10.53125,-5.36523 a 0.85271278,0.85271278 0 0 0 -0.07227,-1.69922 z"
       id="path1052"
       inkscape:connector-curvature="0"
       transform="matrix(0.20273864,0,0,0.20273864,98.879539,23.617483)" />
    <path
       style="color:#000000;font-style:normal;font-variant:normal;font-weight:normal;font-stretch:normal;font-size:medium;line-height:normal;font-family:sans-serif;font-variant-ligatures:normal;font-variant-position:normal;font-variant-caps:normal;font-variant-numeric:normal;font-variant-alternates:normal;font-feature-settings:normal;text-indent:0;text-align:start;text-decoration:none;text-decoration-line:none;text-decoration-style:solid;text-decoration-color:#000000;letter-spacing:normal;word-spacing:normal;text-transform:none;writing-mode:lr-tb;direction:ltr;text-orientation:mixed;dominant-baseline:auto;baseline-shift:baseline;text-anchor:start;white-space:normal;shape-padding:0;clip-rule:nonzero;display:inline;overflow:visible;visibility:visible;opacity:1;isolation:auto;mix-blend-mode:normal;color-interpolation:sRGB;color-interpolation-filters:linearRGB;solid-color:#000000;solid-opacity:1;vector-effect:none;fill:#4d4d4d;fill-opacity:1;fill-rule:nonzero;stroke:none;stroke-width:1.70525503;stroke-linecap:round;stroke-linejoin:miter;stroke-miterlimit:4;stroke-dasharray:none;stroke-dashoffset:0;stroke-opacity:1;filter:url(#filter1285-9);color-rendering:auto;image-rendering:auto;shape-rendering:auto;text-rendering:auto;enable-background:accumulate"
       d="m 142.28906,199.18164 a 0.85271278,0.85271278 0 0 0 -0.38476,0.0977 c -5.3941,2.73041 -10.41759,6.80431 -14.92383,12.6289 a 0.85271278,0.85271278 0 1 0 1.34765,1.04297 c 4.36679,-5.64434 9.17991,-9.53554 14.34571,-12.15039 a 0.85271278,0.85271278 0 0 0 -0.38477,-1.61914 z"
       id="path1054"
       inkscape:connector-curvature="0"
       transform="matrix(0.20273864,0,0,0.20273864,98.879539,23.617483)" />
    <path
       style="color:#000000;font-style:normal;font-variant:normal;font-weight:normal;font-stretch:normal;font-size:medium;line-height:normal;font-family:sans-serif;font-variant-ligatures:normal;font-variant-position:normal;font-variant-caps:normal;font-variant-numeric:normal;font-variant-alternates:normal;font-feature-settings:normal;text-indent:0;text-align:start;text-decoration:none;text-decoration-line:none;text-decoration-style:solid;text-decoration-color:#000000;letter-spacing:normal;word-spacing:normal;text-transform:none;writing-mode:lr-tb;direction:ltr;text-orientation:mixed;dominant-baseline:auto;baseline-shift:baseline;text-anchor:start;white-space:normal;shape-padding:0;clip-rule:nonzero;display:inline;overflow:visible;visibility:visible;opacity:1;isolation:auto;mix-blend-mode:normal;color-interpolation:sRGB;color-interpolation-filters:linearRGB;solid-color:#000000;solid-opacity:1;vector-effect:none;fill:#4d4d4d;fill-opacity:1;fill-rule:nonzero;stroke:none;stroke-width:1.70525503;stroke-linecap:round;stroke-linejoin:miter;stroke-miterlimit:4;stroke-dasharray:none;stroke-dashoffset:0;stroke-opacity:1;filter:url(#filter1285-9);color-rendering:auto;image-rendering:auto;shape-rendering:auto;text-rendering:auto;enable-background:accumulate"
       d="m 145.71484,207.7168 a 0.85271278,0.85271278 0 0 0 -0.30859,0.0527 c -5.05253,1.79324 -9.97283,4.52435 -14.77734,8.07617 a 0.85271278,0.85271278 0 1 0 1.01367,1.3711 c 4.69302,-3.4694 9.46708,-6.11249 14.33398,-7.83985 a 0.85271278,0.85271278 0 0 0 -0.26172,-1.66015 z"
       id="path1056"
       inkscape:connector-curvature="0"
       transform="matrix(0.20273864,0,0,0.20273864,98.879539,23.617483)" />
    <path
       style="color:#000000;font-style:normal;font-variant:normal;font-weight:normal;font-stretch:normal;font-size:medium;line-height:normal;font-family:sans-serif;font-variant-ligatures:normal;font-variant-position:normal;font-variant-caps:normal;font-variant-numeric:normal;font-variant-alternates:normal;font-feature-settings:normal;text-indent:0;text-align:start;text-decoration:none;text-decoration-line:none;text-decoration-style:solid;text-decoration-color:#000000;letter-spacing:normal;word-spacing:normal;text-transform:none;writing-mode:lr-tb;direction:ltr;text-orientation:mixed;dominant-baseline:auto;baseline-shift:baseline;text-anchor:start;white-space:normal;shape-padding:0;clip-rule:nonzero;display:inline;overflow:visible;visibility:visible;opacity:1;isolation:auto;mix-blend-mode:normal;color-interpolation:sRGB;color-interpolation-filters:linearRGB;solid-color:#000000;solid-opacity:1;vector-effect:none;fill:#4d4d4d;fill-opacity:1;fill-rule:nonzero;stroke:none;stroke-width:1.70525503;stroke-linecap:round;stroke-linejoin:miter;stroke-miterlimit:4;stroke-dasharray:none;stroke-dashoffset:0;stroke-opacity:1;filter:url(#filter1285-9);color-rendering:auto;image-rendering:auto;shape-rendering:auto;text-rendering:auto;enable-background:accumulate"
       d="m 116.42773,225.69922 a 0.85271278,0.85271278 0 0 0 -0.81835,0.99414 c -0.009,0.008 0.002,-0.002 -0.01,0.008 -0.17942,0.13818 -0.63648,0.36067 -1.24805,0.54688 -1.22314,0.37241 -3.06944,0.65874 -4.99609,0.75781 -1.92665,0.0991 -3.94839,0.0122 -5.54688,-0.30469 -1.59848,-0.3169 -2.67845,-0.92463 -2.93945,-1.4082 a 0.85271278,0.85271278 0 1 0 -1.499999,0.81055 c 0.724069,1.34154 2.304469,1.91365 4.109379,2.27148 1.8049,0.35783 3.92936,0.43865 5.96484,0.33398 2.03548,-0.10466 3.96616,-0.3922 5.4043,-0.83007 0.71906,-0.21894 1.31563,-0.46051 1.79296,-0.82813 0.23867,-0.18381 0.46013,-0.40664 0.59961,-0.73242 0.13948,-0.32579 0.14193,-0.76121 -0.004,-1.0957 a 0.85271278,0.85271278 0 0 0 -0.8086,-0.52344 z"
       id="path1060"
       inkscape:connector-curvature="0"
       transform="matrix(0.20273864,0,0,0.20273864,98.879539,23.617483)" />
    <path
       transform="matrix(0.20273864,0,0,0.20273864,98.879539,23.617483)"
       style="display:inline;opacity:1;fill:#ffaaaa;fill-opacity:1;stroke:none;stroke-width:1.7225678;stroke-linecap:round;stroke-linejoin:round;stroke-miterlimit:4;stroke-dasharray:none;stroke-dashoffset:0;stroke-opacity:1;paint-order:normal;filter:url(#filter1285-9);image-rendering:auto"
       d="m 105.23451,227.85437 c -0.88541,-0.0983 -2.29816,-0.41029 -2.87902,-0.6357 l -0.61962,-0.24045 1.21789,-0.32142 c 1.53317,-0.40462 2.28617,-0.70032 3.12659,-1.2278 0.61146,-0.38378 0.71368,-0.41158 1.27987,-0.34814 1.28058,0.14348 8.00384,1.27219 8.10093,1.36 0.42541,0.38471 -1.86869,1.07839 -4.54434,1.37408 -1.01045,0.11167 -4.79548,0.13793 -5.6823,0.0394 z"
       id="path1351"
       inkscape:connector-curvature="0" />
    <path
       style="color:#000000;font-style:normal;font-variant:normal;font-weight:normal;font-stretch:normal;font-size:medium;line-height:normal;font-family:sans-serif;font-variant-ligatures:normal;font-variant-position:normal;font-variant-caps:normal;font-variant-numeric:normal;font-variant-alternates:normal;font-feature-settings:normal;text-indent:0;text-align:start;text-decoration:none;text-decoration-line:none;text-decoration-style:solid;text-decoration-color:#000000;letter-spacing:normal;word-spacing:normal;text-transform:none;writing-mode:lr-tb;direction:ltr;text-orientation:mixed;dominant-baseline:auto;baseline-shift:baseline;text-anchor:start;white-space:normal;shape-padding:0;clip-rule:nonzero;display:inline;overflow:visible;visibility:visible;opacity:1;isolation:auto;mix-blend-mode:normal;color-interpolation:sRGB;color-interpolation-filters:linearRGB;solid-color:#000000;solid-opacity:1;vector-effect:none;fill:#4d4d4d;fill-opacity:1;fill-rule:nonzero;stroke:none;stroke-width:1.70525503;stroke-linecap:round;stroke-linejoin:miter;stroke-miterlimit:4;stroke-dasharray:none;stroke-dashoffset:0;stroke-opacity:1;filter:url(#filter1285-9);color-rendering:auto;image-rendering:auto;shape-rendering:auto;text-rendering:auto;enable-background:accumulate"
       d="m 141.27734,217.77148 c -3.20922,-0.14652 -6.82632,0.40488 -9.54296,1.31641 a 0.85295209,0.85295209 0 1 0 0.54296,1.61719 c 3.28681,-1.10284 8.45108,-1.62237 11.63868,-0.88086 a 0.85271278,0.85271278 0 1 0 0.38671,-1.66016 c -0.93035,-0.21642 -1.95565,-0.34373 -3.02539,-0.39258 z"
       id="path1058"
       inkscape:connector-curvature="0"
       transform="matrix(0.20273864,0,0,0.20273864,98.879539,23.393147)" />
  </g>
</svg>
