<?xml version="1.0" encoding="UTF-8" standalone="no"?>
<!-- Created with Inkscape (http://www.inkscape.org/) -->

<svg
   xmlns:dc="http://purl.org/dc/elements/1.1/"
   xmlns:cc="http://creativecommons.org/ns#"
   xmlns:rdf="http://www.w3.org/1999/02/22-rdf-syntax-ns#"
   xmlns:svg="http://www.w3.org/2000/svg"
   xmlns="http://www.w3.org/2000/svg"
   xmlns:sodipodi="http://sodipodi.sourceforge.net/DTD/sodipodi-0.dtd"
   xmlns:inkscape="http://www.inkscape.org/namespaces/inkscape"
   width="75mm"
   height="75mm"
   viewBox="0 0 75 75.000001"
   version="1.1"
   id="svg8"
   inkscape:version="0.92.5 (2060ec1f9f, 2020-04-08)"
   sodipodi:docname="meat.svg">
  <defs
     id="defs2" />
  <sodipodi:namedview
     id="base"
     pagecolor="#ffffff"
     bordercolor="#666666"
     borderopacity="1.0"
     inkscape:pageopacity="0.0"
     inkscape:pageshadow="2"
     inkscape:zoom="1.4"
     inkscape:cx="8.7617696"
     inkscape:cy="176.43093"
     inkscape:document-units="mm"
     inkscape:current-layer="layer1"
     showgrid="false"
     inkscape:pagecheckerboard="false"
     fit-margin-top="5"
     fit-margin-left="5"
     fit-margin-right="5"
     fit-margin-bottom="5"
     inkscape:snap-global="false" />
  <metadata
     id="metadata5">
    <rdf:RDF>
      <cc:Work
         rdf:about="">
        <dc:format>image/svg+xml</dc:format>
        <dc:type
           rdf:resource="http://purl.org/dc/dcmitype/StillImage" />
        <dc:title />
      </cc:Work>
    </rdf:RDF>
  </metadata>
  <g
     inkscape:label="レイヤー 1"
     inkscape:groupmode="layer"
     id="layer1"
     transform="translate(64.539734,-1.9027975)">
    <g
       id="layer1-2"
       inkscape:label="レイヤー 1"
       transform="matrix(1.2005097,-0.14850183,0.17003723,1.4339013,-225.78259,45.342858)"
       style="fill:#ffffff;stroke:#cccccc;stroke-width:1.29372537;stroke-miterlimit:4;stroke-dasharray:none;stroke-opacity:1">
      <path
         style="opacity:1;fill:#ffffff;fill-opacity:1;stroke:#cccccc;stroke-width:5.39366627;stroke-linecap:round;stroke-linejoin:round;stroke-miterlimit:4;stroke-dasharray:none;stroke-dashoffset:0;stroke-opacity:1;paint-order:normal"
         d="m 262.24219,18.935547 a 21.856492,18.252634 70.221513 0 0 -7.10352,1.548828 21.856492,18.252634 70.221513 0 0 -7.51562,27.935547 21.856492,18.252634 70.221513 0 0 1.55468,2.919922 l -42.76757,32.625 19.83007,23.501956 53.92774,-41.138675 -5.75,-6.816406 a 21.856492,18.252634 70.221513 0 0 6.07617,-27.117188 21.856492,18.252634 70.221513 0 0 -18.25195,-13.458984 z"
         transform="matrix(0.25090126,0,0,0.22930483,115.78842,-12.384314)"
         id="rect837"
         inkscape:connector-curvature="0" />
      <ellipse
         style="opacity:1;fill:#ffffff;fill-opacity:1;stroke:#cccccc;stroke-width:1.29375052;stroke-linecap:round;stroke-linejoin:round;stroke-miterlimit:4;stroke-dasharray:none;stroke-dashoffset:0;stroke-opacity:1;paint-order:normal"
         id="path839-9"
         cx="23.664396"
         cy="185.20116"
         rx="4.1986041"
         ry="5.4668112"
         transform="matrix(0.12892358,-0.99165453,0.99047932,0.13766158,0,0)" />
    </g>
    <path
       style="opacity:1;fill:#ffb380;fill-opacity:1;stroke:#e9afaf;stroke-width:0;stroke-linecap:square;stroke-linejoin:bevel;stroke-miterlimit:4;stroke-dasharray:none;stroke-dashoffset:0;stroke-opacity:1;paint-order:normal"
       d="m -60.817001,55.563782 c -2.12401,-11.90318 7.875148,-20.233548 16.087096,-24.898115 2.7086,-1.538548 12.59205,-2.382216 15.741123,-2.968683 2.803601,-0.522125 10.612874,-4.277518 12.850296,-2.554076 2.237422,1.723442 3.408869,3.371148 4.840907,5.835849 1.4320466,2.464702 -2.011987,13.57817 -1.997284,16.59808 0.05641,11.589809 -17.05654,26.306416 -29.344897,25.535015 -9.95572,-0.624969 -16.134481,-6.100223 -18.177241,-17.54807 z"
       id="path12-8"
       inkscape:connector-curvature="0"
       sodipodi:nodetypes="ssssssss" />
    <path
       style="opacity:0.5;fill:#ff5555;fill-opacity:1;stroke:#e9afaf;stroke-width:0;stroke-linecap:round;stroke-linejoin:round;stroke-miterlimit:4;stroke-dasharray:none;stroke-dashoffset:0;stroke-opacity:1;paint-order:normal"
       d="m -36.492642,71.416626 c 3.226792,-1.587526 11.901543,-0.341491 12.709282,-24.566699 0.06695,-2.007876 0.01737,-3.211762 0.429532,-4.40816 0.412165,-1.196402 1.286073,-2.385317 3.199998,-4.36324 1.853103,-1.915067 2.172051,-2.41676 3.086382,-3.416233 0.890269,-0.973172 0.909999,-0.872047 2.109541,-5.438105 l 2.422355,3.165739 c -0.473457,3.608806 -0.428017,5.072816 -1.237171,9.016399 -0.788189,3.841398 -1.422049,10.236735 -2.210973,11.894082 -2.479334,4.571995 -4.932765,8.28899 -8.085062,10.989183 -4.033598,2.417357 -7.727651,5.230159 -12.423884,7.127034 -7.171899,2.457822 0,0 0,0 z"
       id="rect872"
       inkscape:connector-curvature="0"
       sodipodi:nodetypes="cssssccscccc" />
    <ellipse
       style="opacity:1;fill:#ffffff;fill-opacity:1;stroke:none;stroke-width:0.42017797;stroke-linecap:round;stroke-linejoin:round;stroke-miterlimit:4;stroke-dasharray:none;stroke-dashoffset:0;stroke-opacity:1;paint-order:normal"
       id="path876"
       cx="-7.8466864"
       cy="-26.021204"
       rx="2.5439317"
       ry="3.3850207"
       transform="matrix(-0.97896314,-0.20403718,0.56244016,-0.82683799,0,0)" />
    <ellipse
       style="opacity:1;fill:#ffffff;fill-opacity:1;stroke:none;stroke-width:0.65543365;stroke-linecap:round;stroke-linejoin:round;stroke-miterlimit:4;stroke-dasharray:none;stroke-dashoffset:0;stroke-opacity:1;paint-order:normal"
       id="path876-2"
       cx="5.0376201"
       cy="-20.727146"
       rx="4.9148555"
       ry="4.2633085"
       transform="matrix(-0.95625802,-0.29252453,0.06012731,-0.99819072,0,0)" />
    <path
       style="fill:none;stroke:#ffe6d5;stroke-width:2.63197351;stroke-linecap:round;stroke-linejoin:miter;stroke-miterlimit:4;stroke-dasharray:none;stroke-opacity:1"
       d="m -56.927207,56.350716 c -0.594538,-7.807753 3.588292,-14.586287 9.113137,-16.889473"
       id="path893"
       inkscape:connector-curvature="0"
       sodipodi:nodetypes="cc" />
    <path
       style="fill:none;stroke:#ffe6d5;stroke-width:2.19331121;stroke-linecap:round;stroke-linejoin:miter;stroke-miterlimit:4;stroke-dasharray:none;stroke-opacity:1"
       d="m -44.466688,37.671254 0.504939,-0.242676"
       id="path893-3"
       inkscape:connector-curvature="0"
       sodipodi:nodetypes="cc" />
  </g>
</svg>
