<?xml version="1.0" encoding="UTF-8" standalone="no"?>
<!-- Created with Inkscape (http://www.inkscape.org/) -->

<svg
   xmlns:dc="http://purl.org/dc/elements/1.1/"
   xmlns:cc="http://creativecommons.org/ns#"
   xmlns:rdf="http://www.w3.org/1999/02/22-rdf-syntax-ns#"
   xmlns:svg="http://www.w3.org/2000/svg"
   xmlns="http://www.w3.org/2000/svg"
   xmlns:sodipodi="http://sodipodi.sourceforge.net/DTD/sodipodi-0.dtd"
   xmlns:inkscape="http://www.inkscape.org/namespaces/inkscape"
   width="92.874603mm"
   height="79.346626mm"
   viewBox="0 0 92.874603 79.346627"
   version="1.1"
   id="svg8"
   inkscape:version="0.92.5 (2060ec1f9f, 2020-04-08)"
   sodipodi:docname="meat.svg">
  <defs
     id="defs2" />
  <sodipodi:namedview
     id="base"
     pagecolor="#ffffff"
     bordercolor="#666666"
     borderopacity="1.0"
     inkscape:pageopacity="0.0"
     inkscape:pageshadow="2"
     inkscape:zoom="1.4"
     inkscape:cx="8.7617696"
     inkscape:cy="176.43093"
     inkscape:document-units="mm"
     inkscape:current-layer="layer1"
     showgrid="false"
     inkscape:pagecheckerboard="false"
     fit-margin-top="5"
     fit-margin-left="5"
     fit-margin-right="5"
     fit-margin-bottom="5"
     inkscape:snap-global="false" />
  <metadata
     id="metadata5">
    <rdf:RDF>
      <cc:Work
         rdf:about="">
        <dc:format>image/svg+xml</dc:format>
        <dc:type
           rdf:resource="http://purl.org/dc/dcmitype/StillImage" />
        <dc:title />
      </cc:Work>
    </rdf:RDF>
  </metadata>
  <g
     inkscape:label="レイヤー 1"
     inkscape:groupmode="layer"
     id="layer1"
     transform="translate(64.539734,2.4438288)">
    <g
       id="layer1-2"
       inkscape:label="レイヤー 1"
       transform="matrix(1.4278147,0,0,1.6738016,-251.51096,13.685308)"
       style="fill:#ffffff;stroke:#cccccc;stroke-width:1.29372533;stroke-miterlimit:4;stroke-dasharray:none;stroke-opacity:1">
      <path
         style="opacity:1;fill:#ffffff;fill-opacity:1;stroke:#cccccc;stroke-width:5.39366612;stroke-linecap:round;stroke-linejoin:round;stroke-miterlimit:4;stroke-dasharray:none;stroke-dashoffset:0;stroke-opacity:1;paint-order:normal"
         d="m 262.24219,18.935547 a 21.856492,18.252634 70.221513 0 0 -7.10352,1.548828 21.856492,18.252634 70.221513 0 0 -7.51562,27.935547 21.856492,18.252634 70.221513 0 0 1.55468,2.919922 l -42.76757,32.625 19.83007,23.501956 53.92774,-41.138675 -5.75,-6.816406 a 21.856492,18.252634 70.221513 0 0 6.07617,-27.117188 21.856492,18.252634 70.221513 0 0 -18.25195,-13.458984 z"
         transform="matrix(0.25090126,0,0,0.22930483,115.78842,-12.384314)"
         id="rect837"
         inkscape:connector-curvature="0" />
      <ellipse
         style="opacity:1;fill:#ffffff;fill-opacity:1;stroke:#cccccc;stroke-width:1.29375048;stroke-linecap:round;stroke-linejoin:round;stroke-miterlimit:4;stroke-dasharray:none;stroke-dashoffset:0;stroke-opacity:1;paint-order:normal"
         id="path839-9"
         cx="23.664396"
         cy="185.20116"
         rx="4.1986041"
         ry="5.4668112"
         transform="matrix(0.12892358,-0.99165453,0.99047932,0.13766158,0,0)" />
    </g>
    <path
       style="opacity:1;fill:#ffb380;fill-opacity:1;stroke:#e9afaf;stroke-width:0;stroke-linecap:square;stroke-linejoin:bevel;stroke-miterlimit:4;stroke-dasharray:none;stroke-dashoffset:0;stroke-opacity:1;paint-order:normal"
       d="m -59.504798,49.369435 c -0.779409,-13.682877 11.639314,-21.68481 21.54246,-25.8074 3.266419,-1.359786 14.536857,-0.954573 18.171033,-1.182847 3.235484,-0.20323 12.5605334,-3.358124 14.8517081,-1.112538 2.2911748,2.245584 3.389448,4.259888 4.67080175,7.229069 C 1.0125693,31.464902 -4.3854981,43.496282 -4.7794051,46.895883 -6.2911592,59.942861 -27.607542,74.154858 -41.372931,71.603035 -52.525309,69.535612 -58.755203,62.528901 -59.504798,49.369435 Z"
       id="path12-8"
       inkscape:connector-curvature="0"
       sodipodi:nodetypes="ssssssss" />
    <path
       style="opacity:0.5;fill:#ff5555;fill-opacity:1;stroke:#e9afaf;stroke-width:0;stroke-linecap:round;stroke-linejoin:round;stroke-miterlimit:4;stroke-dasharray:none;stroke-dashoffset:0;stroke-opacity:1;paint-order:normal"
       d="m -33.259571,70.618682 c 4.002936,-1.367144 13.997819,1.300813 18.311849,-26.453666 0.357563,-2.300392 0.466785,-3.692435 1.116197,-5.010157 0.649413,-1.317722 1.839018,-2.561121 4.3573476,-4.564222 2.4382954,-1.93944 2.8818834,-2.471216 4.0925366,-3.490924 1.1787965,-0.992876 1.1878653,-0.873732 3.2285742,-5.95596 l 2.39932742,3.98668 c -1.056576,4.084305 -1.20680773,5.775016 -2.70340262,10.196684 -1.457817,4.307097 -3.0897295,11.574288 -4.2448311,13.36868 -3.5416381,4.906938 -6.9340711,8.833941 -11.0043451,11.491733 -5.063975,2.20699 -9.784919,4.917236 -15.553253,6.431152 -8.748149,1.806941 0,0 0,0 z"
       id="rect872"
       inkscape:connector-curvature="0"
       sodipodi:nodetypes="cssssccscccc" />
    <ellipse
       style="opacity:1;fill:#ffffff;fill-opacity:1;stroke:none;stroke-width:0.49274457;stroke-linecap:round;stroke-linejoin:round;stroke-miterlimit:4;stroke-dasharray:none;stroke-dashoffset:0;stroke-opacity:1;paint-order:normal"
       id="path876"
       cx="-20.477755"
       cy="-17.076939"
       rx="3.0017917"
       ry="3.9451494"
       transform="matrix(-0.94842836,-0.31699155,0.66427175,-0.74749117,0,0)" />
    <ellipse
       style="opacity:1;fill:#ffffff;fill-opacity:1;stroke:none;stroke-width:0.76614517;stroke-linecap:round;stroke-linejoin:round;stroke-miterlimit:4;stroke-dasharray:none;stroke-dashoffset:0;stroke-opacity:1;paint-order:normal"
       id="path876-2"
       cx="-12.526523"
       cy="-10.039743"
       rx="5.7949977"
       ry="4.9404778"
       transform="matrix(-0.91615181,-0.40083147,0.18054654,-0.98356644,0,0)" />
    <path
       style="fill:none;stroke:#ffe6d5;stroke-width:3.07868195;stroke-linecap:round;stroke-linejoin:miter;stroke-miterlimit:4;stroke-dasharray:none;stroke-opacity:1"
       d="m -55.117754,50.378411 c 0.388372,-9.066884 6.233459,-16.269871 13.029527,-18.133305"
       id="path893"
       inkscape:connector-curvature="0"
       sodipodi:nodetypes="cc" />
    <path
       style="fill:none;stroke:#ffe6d5;stroke-width:2.56556821;stroke-linecap:round;stroke-linejoin:miter;stroke-miterlimit:4;stroke-dasharray:none;stroke-opacity:1"
       d="m -37.915802,30.662205 0.625593,-0.207325"
       id="path893-3"
       inkscape:connector-curvature="0"
       sodipodi:nodetypes="cc" />
  </g>
</svg>
